# xmcd
#
# Track frame offsets: 
#        150
#        19323
#        28305
#        44800
#        67575
#        80478
#        95545
#        107320
#        118818
#        129218
#        142113
#        155318
#        171483
#        181740
#
# Disc length: 2602 seconds
#
# Revision: 0
# Processed by: cddbd v1.5.2PL0 Copyright (c) Steve Scherf et al.
# Submitted via: ExactAudioCopy v1.0b3
#
DISCID=ba0a280e
DTITLE=Ray Charles - RAY CHARLES GOLDEN
DYEAR=1900
DGENRE=R&B
TTITLE0=I CAN'T STOP LOVING YOU
TTITLE1=HIT THE ROAD JACK
TTITLE2=GEORGIA ON MY MIND
TTITLE3=WHAT'D I SAY
TTITLE4=I'VE GOTT A WOMAN
TTITLE5=A FOOL FOR YOU
TTITLE6=LONLY AVENUE
TTITLE7=HALLELUJAH I LOVE HER SO
TTITLE8=I'M MOVING ON
TTITLE9=UNCHAIN MY HEART
TTITLE10=I HAD A DREAM
TTITLE11=YOUR CHEATING HEART
TTITLE12=YES INDEED
TTITLE13=YOU ARE MY SUNSHINE
EXTD=
EXTT0=
EXTT1=
EXTT2=
EXTT3=
EXTT4=
EXTT5=
EXTT6=
EXTT7=
EXTT8=
EXTT9=
EXTT10=
EXTT11=
EXTT12=
EXTT13=
PLAYORDER=
